<mxfile host="app.diagrams.net" agent="Mozilla/5.0 (Windows NT 10.0; Win64; x64) AppleWebKit/537.36 (KHTML, like Gecko) Chrome/129.0.0.0 Safari/537.36 Edg/129.0.0.0" version="24.7.16">
  <diagram name="Page-1" id="TYJcH1h527tfByYJ9XwK">
    <mxGraphModel dx="1269" dy="829" grid="1" gridSize="10" guides="1" tooltips="1" connect="1" arrows="1" fold="1" page="1" pageScale="1" pageWidth="850" pageHeight="1100" math="0" shadow="0">
      <root>
        <mxCell id="0" />
        <mxCell id="1" parent="0" />
        <mxCell id="aTewuERoltx-92OI_PS8-16" value="AddTask" style="swimlane;whiteSpace=wrap;html=1;" parent="1" vertex="1">
          <mxGeometry x="70" y="320" width="1010" height="390" as="geometry" />
        </mxCell>
        <mxCell id="aTewuERoltx-92OI_PS8-5" value="Task &amp;lt;Entity&amp;gt;" style="swimlane;fontStyle=0;childLayout=stackLayout;horizontal=1;startSize=26;fillColor=none;horizontalStack=0;resizeParent=1;resizeParentMax=0;resizeLast=0;collapsible=1;marginBottom=0;whiteSpace=wrap;html=1;" parent="aTewuERoltx-92OI_PS8-16" vertex="1">
          <mxGeometry x="580" y="50" width="140" height="290" as="geometry" />
        </mxCell>
        <mxCell id="aTewuERoltx-92OI_PS8-6" value="+ id (autogenerated)" style="text;strokeColor=none;fillColor=none;align=left;verticalAlign=top;spacingLeft=4;spacingRight=4;overflow=hidden;rotatable=0;points=[[0,0.5],[1,0.5]];portConstraint=eastwest;whiteSpace=wrap;html=1;" parent="aTewuERoltx-92OI_PS8-5" vertex="1">
          <mxGeometry y="26" width="140" height="26" as="geometry" />
        </mxCell>
        <mxCell id="aTewuERoltx-92OI_PS8-7" value="+ userId" style="text;strokeColor=none;fillColor=none;align=left;verticalAlign=top;spacingLeft=4;spacingRight=4;overflow=hidden;rotatable=0;points=[[0,0.5],[1,0.5]];portConstraint=eastwest;whiteSpace=wrap;html=1;" parent="aTewuERoltx-92OI_PS8-5" vertex="1">
          <mxGeometry y="52" width="140" height="26" as="geometry" />
        </mxCell>
        <mxCell id="aTewuERoltx-92OI_PS8-8" value="+ title" style="text;strokeColor=none;fillColor=none;align=left;verticalAlign=top;spacingLeft=4;spacingRight=4;overflow=hidden;rotatable=0;points=[[0,0.5],[1,0.5]];portConstraint=eastwest;whiteSpace=wrap;html=1;" parent="aTewuERoltx-92OI_PS8-5" vertex="1">
          <mxGeometry y="78" width="140" height="26" as="geometry" />
        </mxCell>
        <mxCell id="aTewuERoltx-92OI_PS8-9" value="+ details" style="text;strokeColor=none;fillColor=none;align=left;verticalAlign=top;spacingLeft=4;spacingRight=4;overflow=hidden;rotatable=0;points=[[0,0.5],[1,0.5]];portConstraint=eastwest;whiteSpace=wrap;html=1;" parent="aTewuERoltx-92OI_PS8-5" vertex="1">
          <mxGeometry y="104" width="140" height="26" as="geometry" />
        </mxCell>
        <mxCell id="aTewuERoltx-92OI_PS8-10" value="+ priority" style="text;strokeColor=none;fillColor=none;align=left;verticalAlign=top;spacingLeft=4;spacingRight=4;overflow=hidden;rotatable=0;points=[[0,0.5],[1,0.5]];portConstraint=eastwest;whiteSpace=wrap;html=1;" parent="aTewuERoltx-92OI_PS8-5" vertex="1">
          <mxGeometry y="130" width="140" height="30" as="geometry" />
        </mxCell>
        <mxCell id="aTewuERoltx-92OI_PS8-11" value="+ status" style="text;strokeColor=none;fillColor=none;align=left;verticalAlign=top;spacingLeft=4;spacingRight=4;overflow=hidden;rotatable=0;points=[[0,0.5],[1,0.5]];portConstraint=eastwest;whiteSpace=wrap;html=1;" parent="aTewuERoltx-92OI_PS8-5" vertex="1">
          <mxGeometry y="160" width="140" height="26" as="geometry" />
        </mxCell>
        <mxCell id="aTewuERoltx-92OI_PS8-13" value="+ context" style="text;strokeColor=none;fillColor=none;align=left;verticalAlign=top;spacingLeft=4;spacingRight=4;overflow=hidden;rotatable=0;points=[[0,0.5],[1,0.5]];portConstraint=eastwest;whiteSpace=wrap;html=1;" parent="aTewuERoltx-92OI_PS8-5" vertex="1">
          <mxGeometry y="186" width="140" height="26" as="geometry" />
        </mxCell>
        <mxCell id="aTewuERoltx-92OI_PS8-12" value="+ dueDate" style="text;strokeColor=none;fillColor=none;align=left;verticalAlign=top;spacingLeft=4;spacingRight=4;overflow=hidden;rotatable=0;points=[[0,0.5],[1,0.5]];portConstraint=eastwest;whiteSpace=wrap;html=1;" parent="aTewuERoltx-92OI_PS8-5" vertex="1">
          <mxGeometry y="212" width="140" height="26" as="geometry" />
        </mxCell>
        <mxCell id="aTewuERoltx-92OI_PS8-14" value="+ createdAt" style="text;strokeColor=none;fillColor=none;align=left;verticalAlign=top;spacingLeft=4;spacingRight=4;overflow=hidden;rotatable=0;points=[[0,0.5],[1,0.5]];portConstraint=eastwest;whiteSpace=wrap;html=1;" parent="aTewuERoltx-92OI_PS8-5" vertex="1">
          <mxGeometry y="238" width="140" height="26" as="geometry" />
        </mxCell>
        <mxCell id="aTewuERoltx-92OI_PS8-15" value="+ updatedAt" style="text;strokeColor=none;fillColor=none;align=left;verticalAlign=top;spacingLeft=4;spacingRight=4;overflow=hidden;rotatable=0;points=[[0,0.5],[1,0.5]];portConstraint=eastwest;whiteSpace=wrap;html=1;" parent="aTewuERoltx-92OI_PS8-5" vertex="1">
          <mxGeometry y="264" width="140" height="26" as="geometry" />
        </mxCell>
        <mxCell id="aTewuERoltx-92OI_PS8-17" value="AddTaskRequest" style="swimlane;fontStyle=0;childLayout=stackLayout;horizontal=1;startSize=26;fillColor=none;horizontalStack=0;resizeParent=1;resizeParentMax=0;resizeLast=0;collapsible=1;marginBottom=0;whiteSpace=wrap;html=1;" parent="aTewuERoltx-92OI_PS8-16" vertex="1">
          <mxGeometry x="10" y="50" width="140" height="208" as="geometry" />
        </mxCell>
        <mxCell id="aTewuERoltx-92OI_PS8-18" value="+ userID" style="text;strokeColor=none;fillColor=none;align=left;verticalAlign=top;spacingLeft=4;spacingRight=4;overflow=hidden;rotatable=0;points=[[0,0.5],[1,0.5]];portConstraint=eastwest;whiteSpace=wrap;html=1;" parent="aTewuERoltx-92OI_PS8-17" vertex="1">
          <mxGeometry y="26" width="140" height="26" as="geometry" />
        </mxCell>
        <mxCell id="aTewuERoltx-92OI_PS8-19" value="+ title" style="text;strokeColor=none;fillColor=none;align=left;verticalAlign=top;spacingLeft=4;spacingRight=4;overflow=hidden;rotatable=0;points=[[0,0.5],[1,0.5]];portConstraint=eastwest;whiteSpace=wrap;html=1;" parent="aTewuERoltx-92OI_PS8-17" vertex="1">
          <mxGeometry y="52" width="140" height="26" as="geometry" />
        </mxCell>
        <mxCell id="aTewuERoltx-92OI_PS8-20" value="+ details" style="text;strokeColor=none;fillColor=none;align=left;verticalAlign=top;spacingLeft=4;spacingRight=4;overflow=hidden;rotatable=0;points=[[0,0.5],[1,0.5]];portConstraint=eastwest;whiteSpace=wrap;html=1;" parent="aTewuERoltx-92OI_PS8-17" vertex="1">
          <mxGeometry y="78" width="140" height="26" as="geometry" />
        </mxCell>
        <mxCell id="aTewuERoltx-92OI_PS8-21" value="+ context" style="text;strokeColor=none;fillColor=none;align=left;verticalAlign=top;spacingLeft=4;spacingRight=4;overflow=hidden;rotatable=0;points=[[0,0.5],[1,0.5]];portConstraint=eastwest;whiteSpace=wrap;html=1;" parent="aTewuERoltx-92OI_PS8-17" vertex="1">
          <mxGeometry y="104" width="140" height="26" as="geometry" />
        </mxCell>
        <mxCell id="aTewuERoltx-92OI_PS8-22" value="+ priority" style="text;strokeColor=none;fillColor=none;align=left;verticalAlign=top;spacingLeft=4;spacingRight=4;overflow=hidden;rotatable=0;points=[[0,0.5],[1,0.5]];portConstraint=eastwest;whiteSpace=wrap;html=1;" parent="aTewuERoltx-92OI_PS8-17" vertex="1">
          <mxGeometry y="130" width="140" height="26" as="geometry" />
        </mxCell>
        <mxCell id="aTewuERoltx-92OI_PS8-23" value="+ status" style="text;strokeColor=none;fillColor=none;align=left;verticalAlign=top;spacingLeft=4;spacingRight=4;overflow=hidden;rotatable=0;points=[[0,0.5],[1,0.5]];portConstraint=eastwest;whiteSpace=wrap;html=1;" parent="aTewuERoltx-92OI_PS8-17" vertex="1">
          <mxGeometry y="156" width="140" height="26" as="geometry" />
        </mxCell>
        <mxCell id="aTewuERoltx-92OI_PS8-24" value="+ dueDate" style="text;strokeColor=none;fillColor=none;align=left;verticalAlign=top;spacingLeft=4;spacingRight=4;overflow=hidden;rotatable=0;points=[[0,0.5],[1,0.5]];portConstraint=eastwest;whiteSpace=wrap;html=1;" parent="aTewuERoltx-92OI_PS8-17" vertex="1">
          <mxGeometry y="182" width="140" height="26" as="geometry" />
        </mxCell>
        <mxCell id="aTewuERoltx-92OI_PS8-25" value="AddTaskCommand" style="swimlane;fontStyle=0;childLayout=stackLayout;horizontal=1;startSize=26;fillColor=none;horizontalStack=0;resizeParent=1;resizeParentMax=0;resizeLast=0;collapsible=1;marginBottom=0;whiteSpace=wrap;html=1;" parent="aTewuERoltx-92OI_PS8-16" vertex="1">
          <mxGeometry x="283" y="50" width="165" height="260" as="geometry" />
        </mxCell>
        <mxCell id="aTewuERoltx-92OI_PS8-26" value="+ userID" style="text;strokeColor=none;fillColor=none;align=left;verticalAlign=top;spacingLeft=4;spacingRight=4;overflow=hidden;rotatable=0;points=[[0,0.5],[1,0.5]];portConstraint=eastwest;whiteSpace=wrap;html=1;" parent="aTewuERoltx-92OI_PS8-25" vertex="1">
          <mxGeometry y="26" width="165" height="26" as="geometry" />
        </mxCell>
        <mxCell id="aTewuERoltx-92OI_PS8-27" value="+ title" style="text;strokeColor=none;fillColor=none;align=left;verticalAlign=top;spacingLeft=4;spacingRight=4;overflow=hidden;rotatable=0;points=[[0,0.5],[1,0.5]];portConstraint=eastwest;whiteSpace=wrap;html=1;" parent="aTewuERoltx-92OI_PS8-25" vertex="1">
          <mxGeometry y="52" width="165" height="26" as="geometry" />
        </mxCell>
        <mxCell id="aTewuERoltx-92OI_PS8-28" value="+ details" style="text;strokeColor=none;fillColor=none;align=left;verticalAlign=top;spacingLeft=4;spacingRight=4;overflow=hidden;rotatable=0;points=[[0,0.5],[1,0.5]];portConstraint=eastwest;whiteSpace=wrap;html=1;" parent="aTewuERoltx-92OI_PS8-25" vertex="1">
          <mxGeometry y="78" width="165" height="26" as="geometry" />
        </mxCell>
        <mxCell id="aTewuERoltx-92OI_PS8-29" value="+ context" style="text;strokeColor=none;fillColor=none;align=left;verticalAlign=top;spacingLeft=4;spacingRight=4;overflow=hidden;rotatable=0;points=[[0,0.5],[1,0.5]];portConstraint=eastwest;whiteSpace=wrap;html=1;" parent="aTewuERoltx-92OI_PS8-25" vertex="1">
          <mxGeometry y="104" width="165" height="26" as="geometry" />
        </mxCell>
        <mxCell id="aTewuERoltx-92OI_PS8-30" value="+ priority" style="text;strokeColor=none;fillColor=none;align=left;verticalAlign=top;spacingLeft=4;spacingRight=4;overflow=hidden;rotatable=0;points=[[0,0.5],[1,0.5]];portConstraint=eastwest;whiteSpace=wrap;html=1;" parent="aTewuERoltx-92OI_PS8-25" vertex="1">
          <mxGeometry y="130" width="165" height="26" as="geometry" />
        </mxCell>
        <mxCell id="aTewuERoltx-92OI_PS8-31" value="+ status" style="text;strokeColor=none;fillColor=none;align=left;verticalAlign=top;spacingLeft=4;spacingRight=4;overflow=hidden;rotatable=0;points=[[0,0.5],[1,0.5]];portConstraint=eastwest;whiteSpace=wrap;html=1;" parent="aTewuERoltx-92OI_PS8-25" vertex="1">
          <mxGeometry y="156" width="165" height="26" as="geometry" />
        </mxCell>
        <mxCell id="aTewuERoltx-92OI_PS8-32" value="+ dueDate" style="text;strokeColor=none;fillColor=none;align=left;verticalAlign=top;spacingLeft=4;spacingRight=4;overflow=hidden;rotatable=0;points=[[0,0.5],[1,0.5]];portConstraint=eastwest;whiteSpace=wrap;html=1;" parent="aTewuERoltx-92OI_PS8-25" vertex="1">
          <mxGeometry y="182" width="165" height="26" as="geometry" />
        </mxCell>
        <mxCell id="aTewuERoltx-92OI_PS8-33" value="+ createdAt (sys generated)" style="text;strokeColor=none;fillColor=none;align=left;verticalAlign=top;spacingLeft=4;spacingRight=4;overflow=hidden;rotatable=0;points=[[0,0.5],[1,0.5]];portConstraint=eastwest;whiteSpace=wrap;html=1;" parent="aTewuERoltx-92OI_PS8-25" vertex="1">
          <mxGeometry y="208" width="165" height="26" as="geometry" />
        </mxCell>
        <mxCell id="aTewuERoltx-92OI_PS8-34" value="+ updatedAt (sys generated)" style="text;strokeColor=none;fillColor=none;align=left;verticalAlign=top;spacingLeft=4;spacingRight=4;overflow=hidden;rotatable=0;points=[[0,0.5],[1,0.5]];portConstraint=eastwest;whiteSpace=wrap;html=1;" parent="aTewuERoltx-92OI_PS8-25" vertex="1">
          <mxGeometry y="234" width="165" height="26" as="geometry" />
        </mxCell>
        <mxCell id="aTewuERoltx-92OI_PS8-35" style="edgeStyle=orthogonalEdgeStyle;rounded=0;orthogonalLoop=1;jettySize=auto;html=1;entryX=0;entryY=0.5;entryDx=0;entryDy=0;" parent="aTewuERoltx-92OI_PS8-16" source="aTewuERoltx-92OI_PS8-21" target="aTewuERoltx-92OI_PS8-29" edge="1">
          <mxGeometry relative="1" as="geometry" />
        </mxCell>
        <mxCell id="aTewuERoltx-92OI_PS8-36" style="edgeStyle=orthogonalEdgeStyle;rounded=0;orthogonalLoop=1;jettySize=auto;html=1;entryX=0;entryY=0.5;entryDx=0;entryDy=0;" parent="aTewuERoltx-92OI_PS8-16" source="aTewuERoltx-92OI_PS8-29" target="aTewuERoltx-92OI_PS8-9" edge="1">
          <mxGeometry relative="1" as="geometry" />
        </mxCell>
        <mxCell id="aTewuERoltx-92OI_PS8-37" value="AddTaskResponse" style="swimlane;fontStyle=0;childLayout=stackLayout;horizontal=1;startSize=26;fillColor=none;horizontalStack=0;resizeParent=1;resizeParentMax=0;resizeLast=0;collapsible=1;marginBottom=0;whiteSpace=wrap;html=1;" parent="aTewuERoltx-92OI_PS8-16" vertex="1">
          <mxGeometry x="840" y="128" width="150" height="104" as="geometry" />
        </mxCell>
        <mxCell id="aTewuERoltx-92OI_PS8-39" value="+ taskId" style="text;strokeColor=none;fillColor=none;align=left;verticalAlign=top;spacingLeft=4;spacingRight=4;overflow=hidden;rotatable=0;points=[[0,0.5],[1,0.5]];portConstraint=eastwest;whiteSpace=wrap;html=1;" parent="aTewuERoltx-92OI_PS8-37" vertex="1">
          <mxGeometry y="26" width="150" height="26" as="geometry" />
        </mxCell>
        <mxCell id="aTewuERoltx-92OI_PS8-40" value="+ status" style="text;strokeColor=none;fillColor=none;align=left;verticalAlign=top;spacingLeft=4;spacingRight=4;overflow=hidden;rotatable=0;points=[[0,0.5],[1,0.5]];portConstraint=eastwest;whiteSpace=wrap;html=1;" parent="aTewuERoltx-92OI_PS8-37" vertex="1">
          <mxGeometry y="52" width="150" height="26" as="geometry" />
        </mxCell>
        <mxCell id="aTewuERoltx-92OI_PS8-41" value="+ message" style="text;strokeColor=none;fillColor=none;align=left;verticalAlign=top;spacingLeft=4;spacingRight=4;overflow=hidden;rotatable=0;points=[[0,0.5],[1,0.5]];portConstraint=eastwest;whiteSpace=wrap;html=1;" parent="aTewuERoltx-92OI_PS8-37" vertex="1">
          <mxGeometry y="78" width="150" height="26" as="geometry" />
        </mxCell>
        <mxCell id="aTewuERoltx-92OI_PS8-45" style="edgeStyle=orthogonalEdgeStyle;rounded=0;orthogonalLoop=1;jettySize=auto;html=1;" parent="aTewuERoltx-92OI_PS8-16" source="aTewuERoltx-92OI_PS8-9" target="aTewuERoltx-92OI_PS8-39" edge="1">
          <mxGeometry relative="1" as="geometry" />
        </mxCell>
        <mxCell id="aTewuERoltx-92OI_PS8-46" value="RetrieveAllTasksForUserid" style="swimlane;whiteSpace=wrap;html=1;" parent="1" vertex="1">
          <mxGeometry x="70" y="770" width="1020" height="340" as="geometry" />
        </mxCell>
        <mxCell id="aTewuERoltx-92OI_PS8-47" value="userId" style="swimlane;fontStyle=0;childLayout=stackLayout;horizontal=1;startSize=26;fillColor=none;horizontalStack=0;resizeParent=1;resizeParentMax=0;resizeLast=0;collapsible=1;marginBottom=0;whiteSpace=wrap;html=1;" parent="aTewuERoltx-92OI_PS8-46" vertex="1">
          <mxGeometry x="20" y="144" width="140" height="52" as="geometry" />
        </mxCell>
        <mxCell id="aTewuERoltx-92OI_PS8-48" value="+ userId" style="text;strokeColor=none;fillColor=none;align=left;verticalAlign=top;spacingLeft=4;spacingRight=4;overflow=hidden;rotatable=0;points=[[0,0.5],[1,0.5]];portConstraint=eastwest;whiteSpace=wrap;html=1;" parent="aTewuERoltx-92OI_PS8-47" vertex="1">
          <mxGeometry y="26" width="140" height="26" as="geometry" />
        </mxCell>
        <mxCell id="aTewuERoltx-92OI_PS8-51" value="RetrieveTasksForUserIdQueryHandler" style="swimlane;fontStyle=0;childLayout=stackLayout;horizontal=1;startSize=26;fillColor=none;horizontalStack=0;resizeParent=1;resizeParentMax=0;resizeLast=0;collapsible=1;marginBottom=0;whiteSpace=wrap;html=1;" parent="aTewuERoltx-92OI_PS8-46" vertex="1">
          <mxGeometry x="200" y="144" width="237" height="52" as="geometry" />
        </mxCell>
        <mxCell id="aTewuERoltx-92OI_PS8-52" value="+ userId" style="text;strokeColor=none;fillColor=none;align=left;verticalAlign=top;spacingLeft=4;spacingRight=4;overflow=hidden;rotatable=0;points=[[0,0.5],[1,0.5]];portConstraint=eastwest;whiteSpace=wrap;html=1;" parent="aTewuERoltx-92OI_PS8-51" vertex="1">
          <mxGeometry y="26" width="237" height="26" as="geometry" />
        </mxCell>
        <mxCell id="aTewuERoltx-92OI_PS8-62" value="RetrieveAllTasksResponse" style="swimlane;fontStyle=0;childLayout=stackLayout;horizontal=1;startSize=26;fillColor=none;horizontalStack=0;resizeParent=1;resizeParentMax=0;resizeLast=0;collapsible=1;marginBottom=0;whiteSpace=wrap;html=1;" parent="aTewuERoltx-92OI_PS8-46" vertex="1">
          <mxGeometry x="750" y="40" width="237" height="234" as="geometry" />
        </mxCell>
        <mxCell id="aTewuERoltx-92OI_PS8-63" value="+ taskId" style="text;strokeColor=none;fillColor=none;align=left;verticalAlign=top;spacingLeft=4;spacingRight=4;overflow=hidden;rotatable=0;points=[[0,0.5],[1,0.5]];portConstraint=eastwest;whiteSpace=wrap;html=1;" parent="aTewuERoltx-92OI_PS8-62" vertex="1">
          <mxGeometry y="26" width="237" height="26" as="geometry" />
        </mxCell>
        <mxCell id="aTewuERoltx-92OI_PS8-64" value="+ title" style="text;strokeColor=none;fillColor=none;align=left;verticalAlign=top;spacingLeft=4;spacingRight=4;overflow=hidden;rotatable=0;points=[[0,0.5],[1,0.5]];portConstraint=eastwest;whiteSpace=wrap;html=1;" parent="aTewuERoltx-92OI_PS8-62" vertex="1">
          <mxGeometry y="52" width="237" height="26" as="geometry" />
        </mxCell>
        <mxCell id="aTewuERoltx-92OI_PS8-65" value="+ details" style="text;strokeColor=none;fillColor=none;align=left;verticalAlign=top;spacingLeft=4;spacingRight=4;overflow=hidden;rotatable=0;points=[[0,0.5],[1,0.5]];portConstraint=eastwest;whiteSpace=wrap;html=1;" parent="aTewuERoltx-92OI_PS8-62" vertex="1">
          <mxGeometry y="78" width="237" height="26" as="geometry" />
        </mxCell>
        <mxCell id="aTewuERoltx-92OI_PS8-66" value="+ context" style="text;strokeColor=none;fillColor=none;align=left;verticalAlign=top;spacingLeft=4;spacingRight=4;overflow=hidden;rotatable=0;points=[[0,0.5],[1,0.5]];portConstraint=eastwest;whiteSpace=wrap;html=1;" parent="aTewuERoltx-92OI_PS8-62" vertex="1">
          <mxGeometry y="104" width="237" height="26" as="geometry" />
        </mxCell>
        <mxCell id="aTewuERoltx-92OI_PS8-67" value="+ priority" style="text;strokeColor=none;fillColor=none;align=left;verticalAlign=top;spacingLeft=4;spacingRight=4;overflow=hidden;rotatable=0;points=[[0,0.5],[1,0.5]];portConstraint=eastwest;whiteSpace=wrap;html=1;" parent="aTewuERoltx-92OI_PS8-62" vertex="1">
          <mxGeometry y="130" width="237" height="26" as="geometry" />
        </mxCell>
        <mxCell id="aTewuERoltx-92OI_PS8-68" value="+ status" style="text;strokeColor=none;fillColor=none;align=left;verticalAlign=top;spacingLeft=4;spacingRight=4;overflow=hidden;rotatable=0;points=[[0,0.5],[1,0.5]];portConstraint=eastwest;whiteSpace=wrap;html=1;" parent="aTewuERoltx-92OI_PS8-62" vertex="1">
          <mxGeometry y="156" width="237" height="26" as="geometry" />
        </mxCell>
        <mxCell id="aTewuERoltx-92OI_PS8-69" value="+ dueDate" style="text;strokeColor=none;fillColor=none;align=left;verticalAlign=top;spacingLeft=4;spacingRight=4;overflow=hidden;rotatable=0;points=[[0,0.5],[1,0.5]];portConstraint=eastwest;whiteSpace=wrap;html=1;" parent="aTewuERoltx-92OI_PS8-62" vertex="1">
          <mxGeometry y="182" width="237" height="26" as="geometry" />
        </mxCell>
        <mxCell id="aTewuERoltx-92OI_PS8-70" value="+ createdAt" style="text;strokeColor=none;fillColor=none;align=left;verticalAlign=top;spacingLeft=4;spacingRight=4;overflow=hidden;rotatable=0;points=[[0,0.5],[1,0.5]];portConstraint=eastwest;whiteSpace=wrap;html=1;" parent="aTewuERoltx-92OI_PS8-62" vertex="1">
          <mxGeometry y="208" width="237" height="26" as="geometry" />
        </mxCell>
        <mxCell id="aTewuERoltx-92OI_PS8-71" style="edgeStyle=orthogonalEdgeStyle;rounded=0;orthogonalLoop=1;jettySize=auto;html=1;" parent="aTewuERoltx-92OI_PS8-46" source="aTewuERoltx-92OI_PS8-48" target="aTewuERoltx-92OI_PS8-52" edge="1">
          <mxGeometry relative="1" as="geometry" />
        </mxCell>
        <mxCell id="aTewuERoltx-92OI_PS8-73" value="Task &amp;lt;Entity&amp;gt;" style="swimlane;fontStyle=0;childLayout=stackLayout;horizontal=1;startSize=26;fillColor=none;horizontalStack=0;resizeParent=1;resizeParentMax=0;resizeLast=0;collapsible=1;marginBottom=0;whiteSpace=wrap;html=1;" parent="aTewuERoltx-92OI_PS8-46" vertex="1">
          <mxGeometry x="530" y="40" width="140" height="290" as="geometry" />
        </mxCell>
        <mxCell id="aTewuERoltx-92OI_PS8-74" value="+ id (autogenerated)" style="text;strokeColor=none;fillColor=none;align=left;verticalAlign=top;spacingLeft=4;spacingRight=4;overflow=hidden;rotatable=0;points=[[0,0.5],[1,0.5]];portConstraint=eastwest;whiteSpace=wrap;html=1;" parent="aTewuERoltx-92OI_PS8-73" vertex="1">
          <mxGeometry y="26" width="140" height="26" as="geometry" />
        </mxCell>
        <mxCell id="aTewuERoltx-92OI_PS8-75" value="+ userId" style="text;strokeColor=none;fillColor=none;align=left;verticalAlign=top;spacingLeft=4;spacingRight=4;overflow=hidden;rotatable=0;points=[[0,0.5],[1,0.5]];portConstraint=eastwest;whiteSpace=wrap;html=1;" parent="aTewuERoltx-92OI_PS8-73" vertex="1">
          <mxGeometry y="52" width="140" height="26" as="geometry" />
        </mxCell>
        <mxCell id="aTewuERoltx-92OI_PS8-76" value="+ title" style="text;strokeColor=none;fillColor=none;align=left;verticalAlign=top;spacingLeft=4;spacingRight=4;overflow=hidden;rotatable=0;points=[[0,0.5],[1,0.5]];portConstraint=eastwest;whiteSpace=wrap;html=1;" parent="aTewuERoltx-92OI_PS8-73" vertex="1">
          <mxGeometry y="78" width="140" height="26" as="geometry" />
        </mxCell>
        <mxCell id="aTewuERoltx-92OI_PS8-77" value="+ details" style="text;strokeColor=none;fillColor=none;align=left;verticalAlign=top;spacingLeft=4;spacingRight=4;overflow=hidden;rotatable=0;points=[[0,0.5],[1,0.5]];portConstraint=eastwest;whiteSpace=wrap;html=1;" parent="aTewuERoltx-92OI_PS8-73" vertex="1">
          <mxGeometry y="104" width="140" height="26" as="geometry" />
        </mxCell>
        <mxCell id="aTewuERoltx-92OI_PS8-78" value="+ priority" style="text;strokeColor=none;fillColor=none;align=left;verticalAlign=top;spacingLeft=4;spacingRight=4;overflow=hidden;rotatable=0;points=[[0,0.5],[1,0.5]];portConstraint=eastwest;whiteSpace=wrap;html=1;" parent="aTewuERoltx-92OI_PS8-73" vertex="1">
          <mxGeometry y="130" width="140" height="30" as="geometry" />
        </mxCell>
        <mxCell id="aTewuERoltx-92OI_PS8-79" value="+ status" style="text;strokeColor=none;fillColor=none;align=left;verticalAlign=top;spacingLeft=4;spacingRight=4;overflow=hidden;rotatable=0;points=[[0,0.5],[1,0.5]];portConstraint=eastwest;whiteSpace=wrap;html=1;" parent="aTewuERoltx-92OI_PS8-73" vertex="1">
          <mxGeometry y="160" width="140" height="26" as="geometry" />
        </mxCell>
        <mxCell id="aTewuERoltx-92OI_PS8-80" value="+ context" style="text;strokeColor=none;fillColor=none;align=left;verticalAlign=top;spacingLeft=4;spacingRight=4;overflow=hidden;rotatable=0;points=[[0,0.5],[1,0.5]];portConstraint=eastwest;whiteSpace=wrap;html=1;" parent="aTewuERoltx-92OI_PS8-73" vertex="1">
          <mxGeometry y="186" width="140" height="26" as="geometry" />
        </mxCell>
        <mxCell id="aTewuERoltx-92OI_PS8-81" value="+ dueDate" style="text;strokeColor=none;fillColor=none;align=left;verticalAlign=top;spacingLeft=4;spacingRight=4;overflow=hidden;rotatable=0;points=[[0,0.5],[1,0.5]];portConstraint=eastwest;whiteSpace=wrap;html=1;" parent="aTewuERoltx-92OI_PS8-73" vertex="1">
          <mxGeometry y="212" width="140" height="26" as="geometry" />
        </mxCell>
        <mxCell id="aTewuERoltx-92OI_PS8-82" value="+ createdAt" style="text;strokeColor=none;fillColor=none;align=left;verticalAlign=top;spacingLeft=4;spacingRight=4;overflow=hidden;rotatable=0;points=[[0,0.5],[1,0.5]];portConstraint=eastwest;whiteSpace=wrap;html=1;" parent="aTewuERoltx-92OI_PS8-73" vertex="1">
          <mxGeometry y="238" width="140" height="26" as="geometry" />
        </mxCell>
        <mxCell id="aTewuERoltx-92OI_PS8-83" value="+ updatedAt" style="text;strokeColor=none;fillColor=none;align=left;verticalAlign=top;spacingLeft=4;spacingRight=4;overflow=hidden;rotatable=0;points=[[0,0.5],[1,0.5]];portConstraint=eastwest;whiteSpace=wrap;html=1;" parent="aTewuERoltx-92OI_PS8-73" vertex="1">
          <mxGeometry y="264" width="140" height="26" as="geometry" />
        </mxCell>
        <mxCell id="aTewuERoltx-92OI_PS8-84" style="edgeStyle=orthogonalEdgeStyle;rounded=0;orthogonalLoop=1;jettySize=auto;html=1;entryX=0;entryY=0.5;entryDx=0;entryDy=0;" parent="aTewuERoltx-92OI_PS8-46" source="aTewuERoltx-92OI_PS8-52" target="aTewuERoltx-92OI_PS8-78" edge="1">
          <mxGeometry relative="1" as="geometry" />
        </mxCell>
        <mxCell id="aTewuERoltx-92OI_PS8-85" style="edgeStyle=orthogonalEdgeStyle;rounded=0;orthogonalLoop=1;jettySize=auto;html=1;" parent="aTewuERoltx-92OI_PS8-46" source="aTewuERoltx-92OI_PS8-78" target="aTewuERoltx-92OI_PS8-67" edge="1">
          <mxGeometry relative="1" as="geometry" />
        </mxCell>
        <mxCell id="wZDEozYYJFnxa5Otxxbe-1" value="Complete Task for Task ID" style="swimlane;whiteSpace=wrap;html=1;" vertex="1" parent="1">
          <mxGeometry x="70" y="1160" width="2040" height="690" as="geometry" />
        </mxCell>
        <mxCell id="wZDEozYYJFnxa5Otxxbe-3" value="TaskId" style="swimlane;fontStyle=0;childLayout=stackLayout;horizontal=1;startSize=26;fillColor=none;horizontalStack=0;resizeParent=1;resizeParentMax=0;resizeLast=0;collapsible=1;marginBottom=0;whiteSpace=wrap;html=1;" vertex="1" parent="wZDEozYYJFnxa5Otxxbe-1">
          <mxGeometry x="20" y="169" width="140" height="52" as="geometry" />
        </mxCell>
        <mxCell id="wZDEozYYJFnxa5Otxxbe-4" value="+ taskId" style="text;strokeColor=none;fillColor=none;align=left;verticalAlign=top;spacingLeft=4;spacingRight=4;overflow=hidden;rotatable=0;points=[[0,0.5],[1,0.5]];portConstraint=eastwest;whiteSpace=wrap;html=1;" vertex="1" parent="wZDEozYYJFnxa5Otxxbe-3">
          <mxGeometry y="26" width="140" height="26" as="geometry" />
        </mxCell>
        <mxCell id="wZDEozYYJFnxa5Otxxbe-6" value="RetrieveTaskForTaskIdQueryHandler" style="swimlane;fontStyle=0;childLayout=stackLayout;horizontal=1;startSize=26;fillColor=none;horizontalStack=0;resizeParent=1;resizeParentMax=0;resizeLast=0;collapsible=1;marginBottom=0;whiteSpace=wrap;html=1;" vertex="1" parent="wZDEozYYJFnxa5Otxxbe-1">
          <mxGeometry x="490" y="169" width="237" height="52" as="geometry" />
        </mxCell>
        <mxCell id="wZDEozYYJFnxa5Otxxbe-7" value="+ taskId" style="text;strokeColor=none;fillColor=none;align=left;verticalAlign=top;spacingLeft=4;spacingRight=4;overflow=hidden;rotatable=0;points=[[0,0.5],[1,0.5]];portConstraint=eastwest;whiteSpace=wrap;html=1;" vertex="1" parent="wZDEozYYJFnxa5Otxxbe-6">
          <mxGeometry y="26" width="237" height="26" as="geometry" />
        </mxCell>
        <mxCell id="wZDEozYYJFnxa5Otxxbe-8" value="Task &amp;lt;Entity&amp;gt;" style="swimlane;fontStyle=0;childLayout=stackLayout;horizontal=1;startSize=26;fillColor=none;horizontalStack=0;resizeParent=1;resizeParentMax=0;resizeLast=0;collapsible=1;marginBottom=0;whiteSpace=wrap;html=1;" vertex="1" parent="wZDEozYYJFnxa5Otxxbe-1">
          <mxGeometry x="850" y="54" width="150" height="290" as="geometry" />
        </mxCell>
        <mxCell id="wZDEozYYJFnxa5Otxxbe-9" value="+ id (autogenerated)" style="text;strokeColor=none;fillColor=none;align=left;verticalAlign=top;spacingLeft=4;spacingRight=4;overflow=hidden;rotatable=0;points=[[0,0.5],[1,0.5]];portConstraint=eastwest;whiteSpace=wrap;html=1;" vertex="1" parent="wZDEozYYJFnxa5Otxxbe-8">
          <mxGeometry y="26" width="150" height="26" as="geometry" />
        </mxCell>
        <mxCell id="wZDEozYYJFnxa5Otxxbe-10" value="+ userId" style="text;strokeColor=none;fillColor=none;align=left;verticalAlign=top;spacingLeft=4;spacingRight=4;overflow=hidden;rotatable=0;points=[[0,0.5],[1,0.5]];portConstraint=eastwest;whiteSpace=wrap;html=1;" vertex="1" parent="wZDEozYYJFnxa5Otxxbe-8">
          <mxGeometry y="52" width="150" height="26" as="geometry" />
        </mxCell>
        <mxCell id="wZDEozYYJFnxa5Otxxbe-11" value="+ title" style="text;strokeColor=none;fillColor=none;align=left;verticalAlign=top;spacingLeft=4;spacingRight=4;overflow=hidden;rotatable=0;points=[[0,0.5],[1,0.5]];portConstraint=eastwest;whiteSpace=wrap;html=1;" vertex="1" parent="wZDEozYYJFnxa5Otxxbe-8">
          <mxGeometry y="78" width="150" height="26" as="geometry" />
        </mxCell>
        <mxCell id="wZDEozYYJFnxa5Otxxbe-12" value="+ details" style="text;strokeColor=none;fillColor=none;align=left;verticalAlign=top;spacingLeft=4;spacingRight=4;overflow=hidden;rotatable=0;points=[[0,0.5],[1,0.5]];portConstraint=eastwest;whiteSpace=wrap;html=1;" vertex="1" parent="wZDEozYYJFnxa5Otxxbe-8">
          <mxGeometry y="104" width="150" height="26" as="geometry" />
        </mxCell>
        <mxCell id="wZDEozYYJFnxa5Otxxbe-13" value="+ priority" style="text;strokeColor=none;fillColor=none;align=left;verticalAlign=top;spacingLeft=4;spacingRight=4;overflow=hidden;rotatable=0;points=[[0,0.5],[1,0.5]];portConstraint=eastwest;whiteSpace=wrap;html=1;" vertex="1" parent="wZDEozYYJFnxa5Otxxbe-8">
          <mxGeometry y="130" width="150" height="30" as="geometry" />
        </mxCell>
        <mxCell id="wZDEozYYJFnxa5Otxxbe-14" value="+ status" style="text;strokeColor=none;fillColor=none;align=left;verticalAlign=top;spacingLeft=4;spacingRight=4;overflow=hidden;rotatable=0;points=[[0,0.5],[1,0.5]];portConstraint=eastwest;whiteSpace=wrap;html=1;" vertex="1" parent="wZDEozYYJFnxa5Otxxbe-8">
          <mxGeometry y="160" width="150" height="26" as="geometry" />
        </mxCell>
        <mxCell id="wZDEozYYJFnxa5Otxxbe-15" value="+ context" style="text;strokeColor=none;fillColor=none;align=left;verticalAlign=top;spacingLeft=4;spacingRight=4;overflow=hidden;rotatable=0;points=[[0,0.5],[1,0.5]];portConstraint=eastwest;whiteSpace=wrap;html=1;" vertex="1" parent="wZDEozYYJFnxa5Otxxbe-8">
          <mxGeometry y="186" width="150" height="26" as="geometry" />
        </mxCell>
        <mxCell id="wZDEozYYJFnxa5Otxxbe-16" value="+ dueDate" style="text;strokeColor=none;fillColor=none;align=left;verticalAlign=top;spacingLeft=4;spacingRight=4;overflow=hidden;rotatable=0;points=[[0,0.5],[1,0.5]];portConstraint=eastwest;whiteSpace=wrap;html=1;" vertex="1" parent="wZDEozYYJFnxa5Otxxbe-8">
          <mxGeometry y="212" width="150" height="26" as="geometry" />
        </mxCell>
        <mxCell id="wZDEozYYJFnxa5Otxxbe-17" value="+ createdAt" style="text;strokeColor=none;fillColor=none;align=left;verticalAlign=top;spacingLeft=4;spacingRight=4;overflow=hidden;rotatable=0;points=[[0,0.5],[1,0.5]];portConstraint=eastwest;whiteSpace=wrap;html=1;" vertex="1" parent="wZDEozYYJFnxa5Otxxbe-8">
          <mxGeometry y="238" width="150" height="26" as="geometry" />
        </mxCell>
        <mxCell id="wZDEozYYJFnxa5Otxxbe-18" value="+ updatedAt" style="text;strokeColor=none;fillColor=none;align=left;verticalAlign=top;spacingLeft=4;spacingRight=4;overflow=hidden;rotatable=0;points=[[0,0.5],[1,0.5]];portConstraint=eastwest;whiteSpace=wrap;html=1;" vertex="1" parent="wZDEozYYJFnxa5Otxxbe-8">
          <mxGeometry y="264" width="150" height="26" as="geometry" />
        </mxCell>
        <mxCell id="wZDEozYYJFnxa5Otxxbe-19" style="edgeStyle=orthogonalEdgeStyle;rounded=0;orthogonalLoop=1;jettySize=auto;html=1;entryX=0.021;entryY=0.8;entryDx=0;entryDy=0;entryPerimeter=0;" edge="1" parent="wZDEozYYJFnxa5Otxxbe-1" source="wZDEozYYJFnxa5Otxxbe-7" target="wZDEozYYJFnxa5Otxxbe-13">
          <mxGeometry relative="1" as="geometry" />
        </mxCell>
        <mxCell id="wZDEozYYJFnxa5Otxxbe-25" style="edgeStyle=orthogonalEdgeStyle;rounded=0;orthogonalLoop=1;jettySize=auto;html=1;" edge="1" parent="wZDEozYYJFnxa5Otxxbe-1" source="wZDEozYYJFnxa5Otxxbe-22" target="wZDEozYYJFnxa5Otxxbe-7">
          <mxGeometry relative="1" as="geometry" />
        </mxCell>
        <mxCell id="wZDEozYYJFnxa5Otxxbe-22" value="TaskUpdateService" style="rounded=1;whiteSpace=wrap;html=1;" vertex="1" parent="wZDEozYYJFnxa5Otxxbe-1">
          <mxGeometry x="270" y="178" width="120" height="60" as="geometry" />
        </mxCell>
        <mxCell id="wZDEozYYJFnxa5Otxxbe-23" style="edgeStyle=orthogonalEdgeStyle;rounded=0;orthogonalLoop=1;jettySize=auto;html=1;entryX=0;entryY=0.75;entryDx=0;entryDy=0;" edge="1" parent="wZDEozYYJFnxa5Otxxbe-1" source="wZDEozYYJFnxa5Otxxbe-4" target="wZDEozYYJFnxa5Otxxbe-22">
          <mxGeometry relative="1" as="geometry" />
        </mxCell>
        <mxCell id="wZDEozYYJFnxa5Otxxbe-26" style="edgeStyle=orthogonalEdgeStyle;rounded=0;orthogonalLoop=1;jettySize=auto;html=1;" edge="1" parent="wZDEozYYJFnxa5Otxxbe-1" source="wZDEozYYJFnxa5Otxxbe-17" target="wZDEozYYJFnxa5Otxxbe-22">
          <mxGeometry relative="1" as="geometry">
            <Array as="points">
              <mxPoint x="360" y="305" />
            </Array>
          </mxGeometry>
        </mxCell>
        <mxCell id="wZDEozYYJFnxa5Otxxbe-27" value="UpdateTaskCommand" style="swimlane;fontStyle=0;childLayout=stackLayout;horizontal=1;startSize=26;fillColor=none;horizontalStack=0;resizeParent=1;resizeParentMax=0;resizeLast=0;collapsible=1;marginBottom=0;whiteSpace=wrap;html=1;" vertex="1" parent="wZDEozYYJFnxa5Otxxbe-1">
          <mxGeometry x="220" y="370" width="237" height="52" as="geometry" />
        </mxCell>
        <mxCell id="wZDEozYYJFnxa5Otxxbe-28" value="+ Task" style="text;strokeColor=none;fillColor=none;align=left;verticalAlign=top;spacingLeft=4;spacingRight=4;overflow=hidden;rotatable=0;points=[[0,0.5],[1,0.5]];portConstraint=eastwest;whiteSpace=wrap;html=1;" vertex="1" parent="wZDEozYYJFnxa5Otxxbe-27">
          <mxGeometry y="26" width="237" height="26" as="geometry" />
        </mxCell>
        <mxCell id="wZDEozYYJFnxa5Otxxbe-52" style="edgeStyle=orthogonalEdgeStyle;rounded=0;orthogonalLoop=1;jettySize=auto;html=1;entryX=0.468;entryY=0.038;entryDx=0;entryDy=0;entryPerimeter=0;" edge="1" parent="wZDEozYYJFnxa5Otxxbe-1" source="wZDEozYYJFnxa5Otxxbe-22" target="wZDEozYYJFnxa5Otxxbe-27">
          <mxGeometry relative="1" as="geometry" />
        </mxCell>
        <mxCell id="wZDEozYYJFnxa5Otxxbe-2" value="+ userId" style="text;strokeColor=none;fillColor=none;align=left;verticalAlign=top;spacingLeft=4;spacingRight=4;overflow=hidden;rotatable=0;points=[[0,0.5],[1,0.5]];portConstraint=eastwest;whiteSpace=wrap;html=1;" vertex="1" parent="1">
          <mxGeometry x="100" y="950" width="140" height="26" as="geometry" />
        </mxCell>
      </root>
    </mxGraphModel>
  </diagram>
</mxfile>
